<?xml version="1.0" standalone="no"?>
<!DOCTYPE svg PUBLIC "-//W3C//DTD SVG 20010904//EN"
 "http://www.w3.org/TR/2001/REC-SVG-20010904/DTD/svg10.dtd">
<svg version="1.0" xmlns="http://www.w3.org/2000/svg"
 width="512.000000pt" height="512.000000pt" viewBox="0 0 512.000000 512.000000"
 preserveAspectRatio="xMidYMid meet">
<metadata>
Created by potrace 1.14, written by Peter Selinger 2001-2017
</metadata>
<g transform="translate(0.000000,512.000000) scale(0.100000,-0.100000)"
fill="#000000" stroke="none">
<path d="M2399 4636 c-2 -2 -31 -6 -64 -10 -59 -6 -95 -11 -145 -21 -14 -3
-34 -7 -46 -9 -215 -41 -480 -150 -679 -282 -342 -224 -616 -559 -762 -929
-45 -114 -93 -278 -107 -365 -3 -19 -10 -62 -16 -95 -5 -33 -12 -117 -16 -186
l-6 -126 27 -27 c28 -28 47 -31 110 -16 22 5 54 11 70 14 31 6 116 22 150 30
11 2 49 9 85 16 111 21 114 26 125 175 8 105 13 135 35 226 103 407 408 782
795 977 101 51 167 76 280 107 124 34 178 40 340 39 191 -1 342 -33 523 -113
263 -115 527 -347 686 -599 70 -111 161 -324 180 -422 2 -14 10 -49 15 -79 6
-30 14 -95 17 -145 10 -144 11 -144 159 -173 90 -17 87 -16 210 -42 114 -23
152 -21 177 10 17 22 18 36 13 151 -29 622 -345 1189 -865 1549 -223 155 -567
292 -810 323 -25 3 -56 9 -70 12 -27 6 -406 15 -411 10z"/>
<path d="M2504 2653 l-24 -26 2 -993 c3 -1103 -2 -1019 70 -1031 30 -4 41 -1
62 20 l26 26 0 991 0 991 -25 24 c-33 34 -78 33 -111 -2z"/>
<path d="M1076 2459 c-66 -23 -152 -82 -190 -132 -14 -18 -38 -60 -53 -92
l-28 -60 0 -616 0 -615 38 -76 c44 -90 102 -147 196 -191 172 -81 392 -16 497
148 65 102 65 107 62 762 l-3 588 -34 73 c-42 88 -106 151 -201 195 -84 40
-195 46 -284 16z"/>
<path d="M3812 2465 c-63 -18 -148 -72 -193 -123 -18 -20 -46 -66 -63 -102
l-31 -65 0 -616 0 -615 38 -76 c66 -134 192 -219 333 -224 196 -7 352 104 409
293 21 69 22 1175 1 1244 -37 122 -122 220 -230 266 -74 31 -190 39 -264 18z"/>
<path d="M2185 2335 l-25 -24 0 -671 0 -671 25 -24 c32 -33 78 -33 110 0 l25
24 0 671 0 671 -25 24 c-15 16 -36 25 -55 25 -19 0 -40 -9 -55 -25z"/>
<path d="M2825 2335 l-25 -24 0 -663 c0 -365 3 -673 6 -686 10 -36 57 -56 100
-42 19 6 39 20 44 30 6 12 10 265 10 690 l0 671 -25 24 c-15 16 -36 25 -55 25
-19 0 -40 -9 -55 -25z"/>
<path d="M463 2060 c-21 -9 -55 -34 -75 -56 -66 -67 -69 -89 -66 -460 3 -297
5 -333 22 -366 42 -85 114 -129 224 -136 l72 -5 0 522 0 522 -70 -2 c-40 -1
-86 -9 -107 -19z"/>
<path d="M4480 1561 l0 -521 56 0 c80 0 129 18 183 66 79 71 81 84 78 468 -2
364 -3 367 -68 434 -43 44 -95 65 -176 70 l-73 5 0 -522z"/>
<path d="M3145 2015 l-25 -24 0 -351 0 -351 25 -24 c32 -33 78 -33 111 0 l25
25 -3 356 -3 356 -24 19 c-32 26 -77 24 -106 -6z"/>
<path d="M1864 1855 l-25 -25 3 -356 3 -356 24 -19 c32 -26 77 -24 106 6 l25
24 0 351 0 351 -25 24 c-32 33 -78 33 -111 0z"/>
</g>
</svg>
